<?xml version="1.0" encoding="utf-8"?>
<!-- Generator: Adobe Illustrator 25.2.1, SVG Export Plug-In . SVG Version: 6.00 Build 0)  -->
<svg version="1.1" id="Camada_1" xmlns="http://www.w3.org/2000/svg" xmlns:xlink="http://www.w3.org/1999/xlink" x="0px" y="0px"
	 viewBox="0 0 512 512" style="enable-background:new 0 0 512 512;" xml:space="preserve">
<style type="text/css">
	.st0{fill:#FFFFFF;}
</style>
<path class="st0" d="M510.6,150.9c-1.2-27.1-5.6-45.7-11.9-61.9c-6.5-17.1-16.4-32.5-29.5-45.2c-12.8-13-28.2-23-45.1-29.4
	c-16.2-6.3-34.8-10.7-61.9-11.9C334.9,1.3,326.2,1,256.9,1S179,1.3,151.8,2.4C124.7,3.6,106.1,8,89.9,14.3
	c-17.1,6.5-32.5,16.4-45.2,29.5c-13,12.8-23,28.2-29.4,45.1C9,105.2,4.6,123.7,3.4,150.8c-1.3,27.3-1.6,36-1.6,105.2
	S2.1,334,3.3,361.2c1.2,27.1,5.6,45.7,11.9,61.9c6.5,17.1,16.5,32.5,29.5,45.2c12.8,13,28.2,23,45.1,29.4
	c16.2,6.3,34.8,10.7,61.9,11.9c27.2,1.2,35.9,1.5,105.1,1.5s77.9-0.3,105.1-1.5c27.1-1.2,45.7-5.6,61.9-11.9
	c34.3-13.3,61.4-40.4,74.6-74.6c6.3-16.2,10.7-34.8,11.9-61.9c1.2-27.2,1.5-35.9,1.5-105.1S511.7,178.1,510.6,150.9z M464.6,359.2
	c-1.1,24.9-5.3,38.4-8.8,47.3c-8.6,22.2-26.2,39.9-48.4,48.4c-9,3.5-22.5,7.7-47.3,8.8c-26.9,1.2-35,1.5-103,1.5s-76.2-0.3-103-1.5
	c-24.9-1.1-38.4-5.3-47.3-8.8c-11.1-4.1-21.1-10.6-29.3-19c-8.5-8.3-14.9-18.2-19-29.3c-3.5-9-7.7-22.5-8.8-47.3
	c-1.2-26.9-1.5-35-1.5-103s0.3-76.2,1.5-103c1.1-24.9,5.3-38.4,8.8-47.3c4.1-11.1,10.6-21.1,19.1-29.3c8.3-8.5,18.2-14.9,29.3-19
	c9-3.5,22.5-7.7,47.3-8.8c26.9-1.2,35-1.5,103-1.5c68.2,0,76.2,0.3,103,1.5c24.9,1.1,38.4,5.3,47.3,8.8c11.1,4.1,21.1,10.6,29.3,19
	c8.5,8.3,14.9,18.2,19,29.3c3.5,9,7.7,22.5,8.8,47.3c1.2,26.9,1.5,35,1.5,103S465.8,332.3,464.6,359.2z"/>
<path class="st0" d="M256.9,125c-72.3,0-131,58.7-131,131s58.7,131,131,131c72.3,0,131-58.7,131-131S329.3,125,256.9,125z
	 M256.9,341.1c-46.9,0-85-38.1-85-85s38.1-85,85-85c46.9,0,85,38.1,85,85S303.9,341.1,256.9,341.1z"/>
<path class="st0" d="M423.8,119.8c0,16.9-13.7,30.6-30.6,30.6c-16.9,0-30.6-13.7-30.6-30.6c0-16.9,13.7-30.6,30.6-30.6
	C410.1,89.2,423.8,102.9,423.8,119.8z"/>
</svg>
