<?xml version="1.0" encoding="utf-8"?>
<!-- Generator: Adobe Illustrator 25.2.1, SVG Export Plug-In . SVG Version: 6.00 Build 0)  -->
<svg version="1.1" id="Capa_1" xmlns="http://www.w3.org/2000/svg" xmlns:xlink="http://www.w3.org/1999/xlink" x="0px" y="0px"
	 viewBox="0 0 512 512" style="enable-background:new 0 0 512 512;" xml:space="preserve">
<style type="text/css">
	.st0{fill:#FFFFFF;}
</style>
<g>
	<g>
		<path class="st0" d="M506,101c-18.6,8.2-38.4,13.6-59.1,16.2c21.3-12.7,37.5-32.6,45.1-56.7c-19.8,11.8-41.7,20.2-65,24.8
			c-18.8-20-45.6-32.4-74.9-32.4c-56.8,0-102.4,46.1-102.4,102.5c0,8.1,0.7,15.9,2.4,23.4c-85.2-4.2-160.6-45-211.3-107.2
			c-8.8,15.3-14,32.9-14,51.8c0,35.5,18.3,67,45.5,85.2c-16.5-0.3-32.6-5.1-46.3-12.6c0,0.3,0,0.7,0,1.1
			c0,49.8,35.5,91.2,82.1,100.7c-8.3,2.3-17.4,3.4-26.9,3.4c-6.6,0-13.2-0.4-19.4-1.8c13.3,40.6,51,70.4,95.8,71.4
			c-34.9,27.3-79.2,43.7-127.1,43.7c-8.4,0-16.5-0.4-24.5-1.4c45.4,29.3,99.2,46,157.3,46c188.6,0,291.8-156.2,291.8-291.7
			c0-4.5-0.2-8.9-0.4-13.2C475,139.8,492.1,121.7,506,101z"/>
	</g>
</g>
</svg>
