<?xml version="1.0" encoding="utf-8"?>
<!-- Generator: Adobe Illustrator 25.2.1, SVG Export Plug-In . SVG Version: 6.00 Build 0)  -->
<svg version="1.1" id="Camada_1" xmlns="http://www.w3.org/2000/svg" xmlns:xlink="http://www.w3.org/1999/xlink" x="0px" y="0px"
	 viewBox="0 0 512 512" style="enable-background:new 0 0 512 512;" xml:space="preserve">
<style type="text/css">
	.st0{fill:#FFFFFF;}
</style>
<path class="st0" d="M188.3,372.7v96.6c0,6.7,4.3,12.7,10.7,14.9c1.6,0.5,3.2,0.8,4.9,0.8c4.9,0,9.6-2.3,12.6-6.4l56.5-76.9
	L188.3,372.7z"/>
<path class="st0" d="M499.4,8.6c-4.8-3.4-11.1-3.9-16.3-1.1L14.4,252.3c-5.5,2.9-8.8,8.8-8.4,15c0.5,6.2,4.6,11.6,10.5,13.6
	l130.3,44.5L424.4,88.2L209.6,346.9L428,421.6c1.6,0.5,3.3,0.8,5,0.8c2.8,0,5.6-0.8,8.1-2.3c4-2.4,6.6-6.5,7.3-11l57.3-385.4
	C506.7,17.9,504.2,12.1,499.4,8.6z"/>
</svg>
