<?xml version="1.0" encoding="utf-8"?>
<!-- Generator: Adobe Illustrator 25.2.1, SVG Export Plug-In . SVG Version: 6.00 Build 0)  -->
<svg version="1.1" id="Capa_1" xmlns="http://www.w3.org/2000/svg" xmlns:xlink="http://www.w3.org/1999/xlink" x="0px" y="0px"
	 viewBox="0 0 512 512" style="enable-background:new 0 0 512 512;" xml:space="preserve">
<style type="text/css">
	.st0{fill:#FFFFFF;}
</style>
<path class="st0" d="M256,11.2c-138,0-250,112.4-250,251c0,110.9,71.6,204.9,171,238.2c12.5,2.3,17.1-5.4,17.1-12.1
	c0-6-0.2-21.8-0.3-42.7c-69.5,15.2-84.2-33.7-84.2-33.7c-11.3-29-27.8-36.7-27.8-36.7C59,359.6,83.4,360,83.4,360
	c25.1,1.8,38.3,25.9,38.3,25.9c22.3,38.3,58.5,27.3,72.8,20.8c2.2-16.2,8.7-27.3,15.9-33.6c-55.5-6.3-113.9-27.9-113.9-124
	c0-27.4,9.8-49.8,25.7-67.4c-2.6-6.3-11.2-31.9,2.4-66.4c0,0,21-6.8,68.8,25.7c19.9-5.6,41.3-8.3,62.6-8.4
	c21.2,0.1,42.6,2.9,62.6,8.5c47.7-32.5,68.7-25.7,68.7-25.7c13.6,34.6,5.1,60.1,2.5,66.4c16,17.6,25.7,40,25.7,67.4
	c0,96.4-58.4,117.6-114.1,123.8c9,7.8,17,23.1,17,46.5c0,33.6-0.3,60.6-0.3,68.8c0,6.7,4.5,14.5,17.2,12.1
	C434.4,467.1,506,373,506,262.2C506,123.6,394.1,11.2,256,11.2z"/>
</svg>
