<?xml version="1.0" encoding="utf-8"?>
<!-- Generator: Adobe Illustrator 25.2.1, SVG Export Plug-In . SVG Version: 6.00 Build 0)  -->
<svg version="1.1" id="Bold" xmlns="http://www.w3.org/2000/svg" xmlns:xlink="http://www.w3.org/1999/xlink" x="0px" y="0px"
	 viewBox="0 0 512 512" style="enable-background:new 0 0 512 512;" xml:space="preserve">
<style type="text/css">
	.st0{fill:#FFFFFF;}
</style>
<path class="st0" d="M510.9,511L510.9,511l0.1,0v-187c0-91.5-19.7-162-126.7-162c-51.4,0-85.9,28.2-100,55h-1.5v-46.4H181.4V511H287
	V342.4c0-44.4,8.4-87.3,63.4-87.3c54.2,0,55,50.7,55,90.2V511L510.9,511z"/>
<path class="st0" d="M9.4,170.5h105.7V511H9.4L9.4,170.5z"/>
<path class="st0" d="M62.2,1C28.4,1,1,28.4,1,62.2s27.4,61.8,61.2,61.8s61.2-28,61.2-61.8C123.5,28.4,96,1,62.2,1z"/>
</svg>
